<svg width="20" height="20" viewBox="0 0 20 20" aria-hidden="true">
<path d="M4.8,0C2.1,0,0,2.1,0,4.8v10.5C0,17.9,2.1,20,4.8,20h10.5c2.6,0,4.8-2.1,4.8-4.8V4.8C20,2.1,17.9,0,15.2,0H4.8z M6.7,3.8C7,3.8,7.2,4,7.4,4.3C7.6,4.6,7.9,5,8.3,5.6c0.3,0.5,0.4,1.2,0.1,1.8l-0.7,1C7.4,8.7,7.4,9,7.5,9.3c0.2,0.5,0.6,1.2,1.3,1.9c0.7,0.7,1.4,1.1,1.9,1.3c0.3,0.1,0.6,0.1,0.9-0.1l1-0.7c0.6-0.3,1.3-0.3,1.8,0.1c0.6,0.4,1.1,0.7,1.3,0.9c0.3,0.2,0.4,0.4,0.4,0.7c0.1,1.7-1.2,2.4-1.6,2.4c-0.3,0-3.4,0.4-7-3.2s-3.2-6.8-3.2-7C4.3,5.1,5,3.8,6.7,3.8z"></path>
</svg>
